<?xml version="1.0" encoding="UTF-8"?>
<svg xmlns="http://www.w3.org/2000/svg" viewBox="0 0 64 64">
  <defs>
    <linearGradient id="house" x1="0%" y1="0%" x2="100%" y2="100%">
      <stop offset="0%" stop-color="#bfdbfe" stop-opacity="0.95"/>
      <stop offset="60%" stop-color="#bbf7d0" stop-opacity="0.9"/>
      <stop offset="100%" stop-color="#93c5fd" stop-opacity="0.95"/>
    </linearGradient>
    <linearGradient id="heart" x1="0%" y1="0%" x2="100%" y2="100%">
      <stop offset="0%" stop-color="#f87171"/>
      <stop offset="100%" stop-color="#ef4444"/>
    </linearGradient>
  </defs>
  <!-- White background -->
  <rect width="64" height="64" rx="12" ry="12" fill="#ffffff"/>
  <!-- House base -->
  <rect x="18" y="30" width="28" height="20" rx="3" fill="url(#house)"/>
  <!-- Roof -->
  <path d="M14 30 L32 18 L50 30 L46 30 L32 21 L18 30 Z" fill="url(#house)"/>
  <!-- Door -->
  <rect x="29" y="38" width="6" height="12" rx="1.5" fill="#3b82f6"/>
  <circle cx="33.5" cy="44" r="0.8" fill="#fff"/>
  <!-- Windows -->
  <rect x="21" y="35" width="6" height="6" rx="1" fill="#60a5fa"/>
  <rect x="37" y="35" width="6" height="6" rx="1" fill="#60a5fa"/>
  <!-- Heart -->
  <path d="M38 18 c-2.4-2.4-6.2-2.4-8.6 0 c-2.4 2.4-2.4 6.2 0 8.6 l4.6 4.6 l4.6-4.6 c2.4-2.4 2.4-6.2 0-8.6 z" fill="url(#heart)"/>
</svg>
